Normalized EMG Linear Envelopes
nRows=211
nColumns=4

endheader
time	 med_gas_r	  soleus_r	 tib_ant_r	
3.69254	  0.007267	  0.010290	  0.004080	
3.72581	  0.007725	  0.010618	  0.004239	
3.75907	  0.008176	  0.010925	  0.004396	
3.79234	  0.008617	  0.011191	  0.004552	
3.8256	  0.009008	  0.011404	  0.004711	
3.85887	  0.009290	  0.011559	  0.004880	
3.89214	  0.009425	  0.011654	  0.005072	
3.9254	  0.009425	  0.011690	  0.005301	
3.95867	  0.009346	  0.011670	  0.005576	
3.99194	  0.009248	  0.011605	  0.005871	
4.0252	  0.009171	  0.011508	  0.006119	
4.05847	  0.009122	  0.011388	  0.006230	
4.09173	  0.009094	  0.011250	  0.006152	
4.125	  0.009078	  0.011097	  0.005917	
4.15827	  0.009070	  0.010937	  0.005648	
4.19153	  0.009072	  0.010781	  0.005520	
4.2248	  0.009094	  0.010644	  0.005708	
4.25806	  0.009145	  0.010544	  0.006358	
4.29133	  0.009230	  0.010503	  0.007568	
4.3246	  0.009339	  0.010545	  0.009370	
4.35786	  0.009455	  0.010683	  0.011685	
4.39113	  0.009569	  0.010919	  0.014298	
4.4244	  0.009690	  0.011234	  0.016881	
4.45766	  0.009838	  0.011594	  0.019082	
4.49093	  0.010041	  0.011949	  0.020619	
4.52419	  0.010318	  0.012244	  0.021333	
4.55746	  0.010666	  0.012428	  0.021191	
4.59073	  0.011046	  0.012460	  0.020278	
4.62399	  0.011374	  0.012328	  0.018791	
4.65726	  0.011547	  0.012052	  0.016990	
4.69052	  0.011489	  0.011684	  0.015120	
4.72379	  0.011201	  0.011293	  0.013328	
4.75706	  0.010767	  0.010941	  0.011645	
4.79032	  0.010311	  0.010664	  0.010021	
4.82359	  0.009931	  0.010469	  0.008380	
4.85685	  0.009659	  0.010335	  0.006652	
4.89012	  0.009469	  0.010220	  0.004789	
4.92339	  0.009316	  0.010080	  0.002792	
4.95665	  0.009166	  0.009873	  0.000756	
4.98992	  0.009005	  0.009584	 -0.001042	
5.02319	  0.008846	  0.009240	 -0.002052	
5.05645	  0.008744	  0.008924	 -0.001363	
5.08972	  0.008827	  0.008782	  0.002340	
5.12298	  0.009308	  0.009021	  0.010728	
5.15625	  0.010467	  0.009894	  0.025657	
5.18952	  0.012598	  0.011695	  0.048845	
5.22278	  0.015930	  0.014723	  0.081412	
5.25605	  0.020544	  0.019202	  0.123368	
5.28931	  0.026304	  0.025152	  0.173233	
5.32258	  0.032848	  0.032267	  0.228063	
5.35585	  0.039649	  0.039923	  0.284001	
5.38911	  0.046144	  0.047347	  0.337273	
5.42238	  0.051877	  0.053880	  0.385181	
5.45565	  0.056574	  0.059123	  0.426578	
5.48891	  0.060163	  0.062930	  0.461606	
5.52218	  0.062756	  0.065324	  0.491005	
5.55544	  0.064638	  0.066504	  0.515540	
5.58871	  0.066232	  0.066910	  0.535850	
5.62198	  0.068027	  0.067186	  0.552612	
5.65524	  0.070450	  0.067941	  0.566763	
5.68851	  0.073738	  0.069453	  0.579568	
5.72177	  0.077817	  0.071534	  0.592330	
5.75504	  0.082245	  0.073658	  0.605656	
5.78831	  0.086311	  0.075280	  0.618734	
5.82157	  0.089349	  0.076163	  0.629524	
5.85484	  0.091104	  0.076555	  0.636219	
5.8881	  0.091898	  0.077117	  0.639025	
5.92137	  0.092454	  0.078632	  0.640527	
5.95464	  0.093531	  0.081668	  0.643899	
5.9879	  0.095611	  0.086353	  0.650367	
6.02117	  0.098771	  0.092341	  0.658381	
6.05444	  0.102710	  0.098937	  0.665506	
6.0877	  0.106864	  0.105310	  0.671189	
6.12097	  0.110585	  0.110718	  0.677469	
6.15423	  0.113343	  0.114621	  0.686823	
6.1875	  0.114857	  0.116664	  0.699451	
6.22077	  0.115096	  0.116648	  0.712789	
6.25403	  0.114221	  0.114629	  0.723430	
6.2873	  0.112568	  0.111103	  0.729200	
6.32056	  0.110658	  0.107053	  0.729637	
6.35383	  0.109098	  0.103650	  0.725269	
6.3871	  0.108322	  0.101711	  0.716874	
6.42036	  0.108350	  0.101300	  0.705057	
6.45363	  0.108822	  0.101812	  0.689885	
6.4869	  0.109284	  0.102459	  0.670956	
6.52016	  0.109450	  0.102731	  0.648420	
6.55343	  0.109204	  0.102446	  0.624411	
6.58669	  0.108415	  0.101489	  0.603230	
6.61996	  0.106880	  0.099666	  0.589417	
6.65323	  0.104511	  0.096906	  0.584932	
6.68649	  0.101536	  0.093546	  0.587756	
6.71976	  0.098454	  0.090308	  0.593163	
6.75302	  0.095735	  0.087900	  0.596768	
6.78629	  0.093579	  0.086627	  0.597120	
6.81956	  0.091941	  0.086351	  0.595951	
6.85282	  0.090765	  0.086742	  0.596052	
6.88609	  0.090140	  0.087523	  0.598634	
6.91935	  0.090223	  0.088524	  0.602319	
6.95262	  0.091046	  0.089608	  0.604368	
6.98589	  0.092430	  0.090651	  0.602755	
7.01915	  0.094073	  0.091582	  0.597450	
7.05242	  0.095717	  0.092406	  0.590310	
7.08569	  0.097252	  0.093170	  0.584107	
7.11895	  0.098701	  0.093927	  0.581389	
7.15222	  0.100123	  0.094686	  0.583679	
7.18548	  0.101477	  0.095324	  0.591299	
7.21875	  0.102512	  0.095528	  0.603784	
7.25202	  0.102781	  0.094868	  0.620401	
7.28528	  0.101843	  0.093050	  0.640130	
7.31855	  0.099560	  0.090175	  0.660987	
7.35181	  0.096300	  0.086790	  0.679506	
7.38508	  0.092844	  0.083660	  0.691455	
7.41835	  0.090009	  0.081434	  0.693904	
7.45161	  0.088254	  0.080425	  0.687329	
7.48488	  0.087526	  0.080598	  0.675892	
7.51815	  0.087436	  0.081710	  0.665385	
7.55141	  0.087558	  0.083473	  0.660175	
7.58468	  0.087645	  0.085657	  0.661320	
7.61794	  0.087678	  0.088137	  0.666875	
7.65121	  0.087838	  0.090907	  0.673716	
7.68448	  0.088435	  0.094020	  0.679289	
7.71774	  0.089792	  0.097453	  0.682304	
7.75101	  0.092081	  0.100976	  0.682598	
7.78427	  0.095204	  0.104169	  0.680909	
7.81754	  0.098790	  0.106605	  0.678712	
7.85081	  0.102307	  0.108057	  0.677662	
7.88407	  0.105192	  0.108563	  0.678468	
7.91734	  0.106965	  0.108301	  0.680033	
7.9506	  0.107317	  0.107384	  0.679756	
7.98387	  0.106176	  0.105785	  0.674829	
8.01714	  0.103734	  0.103439	  0.663475	
8.0504	  0.100379	  0.100422	  0.645466	
8.08367	  0.096560	  0.097017	  0.622292	
8.11694	  0.092668	  0.093601	  0.597344	
8.1502	  0.089022	  0.090504	  0.575590	
8.18347	  0.085940	  0.087956	  0.562127	
8.21673	  0.083751	  0.086141	  0.560117	
8.25	  0.082683	  0.085180	  0.569558	
8.28327	  0.082690	  0.085009	  0.587610	
8.31653	  0.083405	  0.085264	  0.609840	
8.3498	  0.084267	  0.085378	  0.631330	
8.38306	  0.084740	  0.084858	  0.647349	
8.41633	  0.084483	  0.083550	  0.654135	
8.4496	  0.083441	  0.081672	  0.650136	
8.48286	  0.081873	  0.079652	  0.637163	
8.51613	  0.080307	  0.077922	  0.620235	
8.5494	  0.079371	  0.076785	  0.605562	
8.58266	  0.079549	  0.076382	  0.597730	
8.61593	  0.081019	  0.076737	  0.598071	
8.64919	  0.083670	  0.077864	  0.605243	
8.68246	  0.087238	  0.079855	  0.617112	
8.71573	  0.091417	  0.082860	  0.632141	
8.74899	  0.095852	  0.086906	  0.649360	
8.78226	  0.100101	  0.091720	  0.667423	
8.81552	  0.103664	  0.096727	  0.683915	
8.84879	  0.106151	  0.101297	  0.695724	
8.88206	  0.107501	  0.105024	  0.700382	
8.91532	  0.108092	  0.107827	  0.697424	
8.94859	  0.108621	  0.109827	  0.688558	
8.98185	  0.109800	  0.111187	  0.676309	
9.01512	  0.112030	  0.112052	  0.662166	
9.04839	  0.115213	  0.112528	  0.645882	
9.08165	  0.118767	  0.112641	  0.626626	
9.11492	  0.121804	  0.112274	  0.605054	
9.14819	  0.123420	  0.111215	  0.584462	
9.18145	  0.122994	  0.109324	  0.569929	
9.21472	  0.120402	  0.106698	  0.565926	
9.24798	  0.116054	  0.103671	  0.574007	
9.28125	  0.110747	  0.100654	  0.592002	
9.31452	  0.105373	  0.097919	  0.614984	
9.34778	  0.100602	  0.095454	  0.637249	
9.38105	  0.096683	  0.093000	  0.654263	
9.41431	  0.093475	  0.090249	  0.663744	
9.44758	  0.090672	  0.087110	  0.665613	
9.48085	  0.088068	  0.083862	  0.661103	
9.51411	  0.085704	  0.081060	  0.651747	
9.54738	  0.083794	  0.079245	  0.638752	
9.58065	  0.082535	  0.078621	  0.622801	
9.61391	  0.081924	  0.078912	  0.604064	
9.64718	  0.081721	  0.079444	  0.582456	
9.68044	  0.081535	  0.079390	  0.558293	
9.71371	  0.080982	  0.078035	  0.533059	
9.74698	  0.079808	  0.075018	  0.509629	
9.78024	  0.077961	  0.070457	  0.491530	
9.81351	  0.075618	  0.064919	  0.481761	
9.84677	  0.073152	  0.059232	  0.482132	
9.88004	  0.071067	  0.054258	  0.493363	
9.91331	  0.069873	  0.050732	  0.515039	
9.94657	  0.069910	  0.049175	  0.544682	
9.97984	  0.071163	  0.049790	  0.576780	
10.0131	  0.073173	  0.052305	  0.603691	
10.0464	  0.075168	  0.055906	  0.618877	
10.0796	  0.076387	  0.059438	  0.620265	
10.1129	  0.076423	  0.061851	  0.610824	
10.1462	  0.075336	  0.062626	  0.595808	
10.1794	  0.073477	  0.061892	  0.579105	
10.2127	  0.071200	  0.060182	  0.561665	
10.246	  0.068698	  0.058063	  0.542747	
10.2792	  0.066028	  0.055914	  0.522200	
10.3125	  0.063233	  0.053909	  0.501468	
10.3458	  0.060423	  0.052131	  0.482621	
10.379	  0.057793	  0.050668	  0.466662	
10.4123	  0.055581	  0.049642	  0.452852	
10.4456	  0.053996	  0.049175	  0.439604	
10.4788	  0.053098	  0.049305	  0.425963	
10.5121	  0.052692	  0.049911	  0.412330	
10.5454	  0.052356	  0.050722	  0.399977	
10.5786	  0.051608	  0.051411	  0.390035	
10.6119	  0.050128	  0.051730	  0.382846	
10.6452	  0.047897	  0.051598	  0.378035	
10.6784	  0.045177	  0.051112	  0.375027	
